<svg width="32" height="32" viewBox="0 0 32 32" fill="none" xmlns="http://www.w3.org/2000/svg">
<g id="Frame" clip-path="url(#clip0_2207_285)">
<path id="Vector" d="M14.4984 5.72675C14.9568 5.46862 15.474 5.33301 16.0001 5.33301C16.5261 5.33301 17.0433 5.46862 17.5017 5.72675L24.296 9.55236C24.769 9.8187 25.1626 10.206 25.4365 10.6746C25.7105 11.1432 25.8548 11.6763 25.8548 12.2191V19.7805C25.8548 20.3233 25.7105 20.8564 25.4365 21.325C25.1626 21.7936 24.769 22.1809 24.296 22.4472L17.5017 26.2729C17.0433 26.531 16.5261 26.6666 16.0001 26.6666C15.474 26.6666 14.9568 26.531 14.4984 26.2729L7.70407 22.4472C7.23111 22.1809 6.83749 21.7936 6.56356 21.325C6.28964 20.8564 6.14527 20.3233 6.14526 19.7805V12.2191C6.14527 11.6763 6.28964 11.1432 6.56356 10.6746C6.83749 10.206 7.23111 9.8187 7.70407 9.55236L14.4984 5.72675ZM16.501 7.50592C16.3481 7.41975 16.1755 7.37448 16.0001 7.37448C15.8246 7.37448 15.652 7.41975 15.4991 7.50592L8.70588 11.3305C8.54814 11.4192 8.41683 11.5482 8.3254 11.7043C8.23398 11.8605 8.18572 12.0381 8.18559 12.2191V19.7805C8.18572 19.9615 8.23398 20.1391 8.3254 20.2953C8.41683 20.4514 8.54814 20.5804 8.70588 20.6691L15.5002 24.4947C15.6531 24.5809 15.8256 24.6262 16.0011 24.6262C16.1766 24.6262 16.3491 24.5809 16.502 24.4947L23.2963 20.6691C23.454 20.5804 23.5853 20.4514 23.6767 20.2953C23.7682 20.1391 23.8164 19.9615 23.8165 19.7805V12.2191C23.8164 12.0381 23.7682 11.8605 23.6767 11.7043C23.5853 11.5482 23.454 11.4192 23.2963 11.3305L16.501 7.50592ZM16.0001 11.9191C17.0823 11.9191 18.1202 12.3491 18.8855 13.1143C19.6508 13.8796 20.0807 14.9175 20.0807 15.9998C20.0807 17.0821 19.6508 18.12 18.8855 18.8853C18.1202 19.6505 17.0823 20.0805 16.0001 20.0805C14.9178 20.0805 13.8799 19.6505 13.1146 18.8853C12.3493 18.12 11.9194 17.0821 11.9194 15.9998C11.9194 14.9175 12.3493 13.8796 13.1146 13.1143C13.8799 12.3491 14.9178 11.9191 16.0001 11.9191ZM16.0001 13.9595C15.7321 13.9595 15.4668 14.0122 15.2193 14.1148C14.9717 14.2173 14.7468 14.3676 14.5573 14.5571C14.3679 14.7465 14.2176 14.9715 14.115 15.219C14.0125 15.4665 13.9597 15.7319 13.9597 15.9998C13.9597 16.2677 14.0125 16.5331 14.115 16.7806C14.2176 17.0281 14.3679 17.2531 14.5573 17.4425C14.7468 17.632 14.9717 17.7823 15.2193 17.8848C15.4668 17.9874 15.7321 18.0401 16.0001 18.0401C16.5412 18.0401 17.0601 17.8252 17.4428 17.4425C17.8254 17.0599 18.0404 16.5409 18.0404 15.9998C18.0404 15.4587 17.8254 14.9397 17.4428 14.5571C17.0601 14.1744 16.5412 13.9595 16.0001 13.9595Z" fill="#4E4E4E"/>
</g>
<defs>
<clipPath id="clip0_2207_285">
<rect width="32" height="32" fill="white"/>
</clipPath>
</defs>
</svg>
