<svg width="32" height="32" viewBox="0 0 32 32" fill="none" xmlns="http://www.w3.org/2000/svg">
<g id="Frame" clip-path="url(#clip0_2228_446)">
<path id="Subtract" d="M11.9287 27.5449L11.7627 27.5488C11.8505 27.5488 11.9374 27.544 12.0234 27.5371C11.9919 27.5396 11.9604 27.5433 11.9287 27.5449ZM25.4609 27.3516C25.1636 27.4607 24.8462 27.5281 24.5156 27.5449H24.5146C24.735 27.5338 24.9495 27.4996 25.1562 27.4463C25.2599 27.4196 25.3616 27.388 25.4609 27.3516ZM7.55273 27.5078L7.71387 27.5117C7.61888 27.5117 7.52457 27.5061 7.43164 27.498C7.47185 27.5015 7.51213 27.5058 7.55273 27.5078ZM20.1387 27.5078L20.2998 27.5117C20.2117 27.5117 20.1245 27.5069 20.0381 27.5C20.0715 27.5027 20.105 27.5062 20.1387 27.5078ZM7.09961 27.4531C7.19488 27.4715 7.29164 27.4853 7.38965 27.4951C7.29162 27.4853 7.19489 27.4715 7.09961 27.4531ZM11.7617 17.2129H11.7627C13.4645 17.2129 14.8494 18.5971 14.8496 20.2988V24.3115C14.8496 26.0135 13.4647 27.3975 11.7627 27.3975L7.71484 27.3623H7.71387C6.01191 27.3623 4.62698 25.9773 4.62695 24.2754V20.2627C4.62695 18.5609 6.01117 17.1761 7.71289 17.1758L11.7617 17.2129ZM24.3477 17.2129H24.3486C26.0504 17.2129 27.4353 18.5971 27.4355 20.2988V24.3115C27.4355 26.0135 26.0506 27.3975 24.3486 27.3975L20.3008 27.3623H20.2998C18.5979 27.3623 17.2129 25.9773 17.2129 24.2754V20.2627C17.2129 18.561 18.5973 17.1763 20.2988 17.1758L24.3477 17.2129ZM18.5518 26.9971C18.7156 27.1026 18.8891 27.1945 19.0713 27.2695C18.889 27.1945 18.7156 27.1027 18.5518 26.9971ZM5.77441 26.8613C5.91142 26.9643 6.05544 27.0582 6.20801 27.1387C6.05543 27.0581 5.91141 26.9643 5.77441 26.8613ZM27.0322 26.1201C26.7993 26.4647 26.5018 26.7622 26.1572 26.9951C26.4157 26.8203 26.6476 26.6092 26.8457 26.3691L27.0322 26.1201ZM14.6914 25.6865C14.6125 25.8539 14.5193 26.0128 14.4141 26.1631C14.5193 26.0128 14.6126 25.8539 14.6914 25.6865ZM17.1592 25.0605C17.2329 25.3553 17.3476 25.6339 17.4961 25.8906C17.3476 25.6339 17.2329 25.3553 17.1592 25.0605ZM4.6582 25.3457C4.7251 25.536 4.81054 25.7174 4.91016 25.8896C4.81059 25.7174 4.72506 25.536 4.6582 25.3457ZM7.71387 18.707C6.85596 18.707 6.1582 19.4048 6.1582 20.2627V24.2754C6.15824 25.1328 6.85472 25.8293 7.71191 25.8301V25.8311L11.7617 25.8672H11.7627C12.6206 25.8672 13.3184 25.1694 13.3184 24.3115V20.2988C13.3181 19.4411 12.6205 18.7432 11.7627 18.7432L7.71484 18.707H7.71387ZM20.2998 18.707C19.4419 18.707 18.7441 19.4048 18.7441 20.2627V24.2754C18.7442 25.133 19.4414 25.8296 20.2988 25.8301V25.8311L24.3477 25.8672H24.3486C25.2065 25.8672 25.9043 25.1694 25.9043 24.3115V20.2988C25.904 19.4411 25.2064 18.7432 24.3486 18.7432L20.3008 18.707H20.2998ZM11.9062 25.71C11.859 25.7148 11.8112 25.7178 11.7627 25.7178C11.8112 25.7178 11.859 25.7148 11.9062 25.71ZM24.4834 25.7109L24.3486 25.7178C24.3956 25.7178 24.4425 25.7145 24.4883 25.71C24.4866 25.7101 24.485 25.7108 24.4834 25.7109ZM24.6172 25.6914C24.5934 25.696 24.5691 25.6978 24.5449 25.7012C24.5691 25.6978 24.5934 25.696 24.6172 25.6914ZM24.7549 25.6562C24.7327 25.663 24.7101 25.6682 24.6875 25.6738C24.7101 25.6682 24.7327 25.663 24.7549 25.6562ZM7.4668 25.6572C7.45968 25.656 7.4524 25.6557 7.44531 25.6543C7.4524 25.6557 7.45967 25.656 7.4668 25.6572ZM20.0527 25.6572C20.0456 25.656 20.0383 25.6557 20.0312 25.6543C20.0383 25.6557 20.0456 25.656 20.0527 25.6572ZM7.37402 25.6367C7.3514 25.6311 7.32882 25.6259 7.30664 25.6191C7.32882 25.6259 7.35139 25.6311 7.37402 25.6367ZM19.96 25.6367C19.9373 25.6311 19.9148 25.6259 19.8926 25.6191C19.9148 25.6259 19.9373 25.6311 19.96 25.6367ZM24.874 25.6143C24.8541 25.6223 24.8339 25.6295 24.8135 25.6367C24.8339 25.6296 24.8541 25.6223 24.874 25.6143ZM7.24805 25.5996C7.22768 25.5924 7.20743 25.5852 7.1875 25.5771C7.20744 25.5852 7.22767 25.5924 7.24805 25.5996ZM19.834 25.5996C19.8136 25.5924 19.7934 25.5852 19.7734 25.5771C19.7934 25.5852 19.8136 25.5924 19.834 25.5996ZM24.9941 25.5586C24.979 25.5665 24.9637 25.5737 24.9482 25.5811C24.9637 25.5737 24.979 25.5664 24.9941 25.5586ZM27.4834 25.1191C27.4567 25.2228 27.4251 25.3244 27.3887 25.4238C27.4252 25.3245 27.4567 25.2228 27.4834 25.1191ZM7.11328 25.5439C7.09786 25.5366 7.08249 25.5293 7.06738 25.5215C7.0825 25.5294 7.09785 25.5366 7.11328 25.5439ZM19.6992 25.5439C19.6838 25.5366 19.6684 25.5293 19.6533 25.5215C19.6684 25.5294 19.6838 25.5366 19.6992 25.5439ZM25.1064 25.4932C25.0913 25.5029 25.0761 25.5123 25.0605 25.5215C25.0761 25.5123 25.0913 25.5029 25.1064 25.4932ZM19.5918 25.4873C19.5717 25.4755 19.5517 25.4639 19.5322 25.4512C19.5517 25.4639 19.5717 25.4755 19.5918 25.4873ZM7.00098 25.4844C6.98485 25.4748 6.96883 25.4652 6.95312 25.4551C6.96884 25.4652 6.98484 25.4748 7.00098 25.4844ZM25.208 25.4219C25.2001 25.428 25.1926 25.4345 25.1846 25.4404C25.1926 25.4345 25.2001 25.428 25.208 25.4219ZM19.4922 25.4238C19.4678 25.4067 19.4441 25.3888 19.4209 25.3701C19.4441 25.3888 19.4678 25.4066 19.4922 25.4238ZM6.89746 25.417C6.87907 25.4038 6.86049 25.391 6.84277 25.377C6.86049 25.391 6.87907 25.4038 6.89746 25.417ZM14.9033 25.0977C14.8811 25.1866 14.8537 25.2735 14.8242 25.3594C14.8537 25.2735 14.8811 25.1866 14.9033 25.0977ZM25.2988 25.3447C25.2946 25.3486 25.2904 25.3526 25.2861 25.3564C25.2904 25.3526 25.2946 25.3486 25.2988 25.3447ZM19.3867 25.3418C19.3653 25.3235 19.3445 25.3047 19.3242 25.2852C19.3444 25.3047 19.3653 25.3235 19.3867 25.3418ZM6.78906 25.332C6.77571 25.3203 6.7629 25.3081 6.75 25.2959C6.7629 25.3081 6.7757 25.3203 6.78906 25.332ZM25.4121 25.2285C25.3988 25.2439 25.385 25.2587 25.3711 25.2734C25.385 25.2587 25.3988 25.2439 25.4121 25.2285ZM19.293 25.2539C19.2724 25.2328 19.2526 25.2109 19.2334 25.1885C19.2526 25.2109 19.2724 25.2327 19.293 25.2539ZM6.69727 25.2441C6.68422 25.2305 6.67168 25.2163 6.65918 25.2021C6.67168 25.2163 6.68421 25.2305 6.69727 25.2441ZM25.4834 25.1377C25.4729 25.152 25.4631 25.1668 25.4521 25.1807C25.4631 25.1668 25.4729 25.152 25.4834 25.1377ZM19.2041 25.1533C19.1856 25.1303 19.1684 25.1062 19.1514 25.082C19.1684 25.1062 19.1856 25.1303 19.2041 25.1533ZM6.60938 25.1426C6.59858 25.1289 6.58842 25.1147 6.57812 25.1006C6.58842 25.1147 6.59858 25.1289 6.60938 25.1426ZM25.5479 25.041C25.5424 25.05 25.5379 25.0595 25.5322 25.0684C25.5379 25.0595 25.5424 25.05 25.5479 25.041ZM19.0625 24.9404C19.0472 24.9121 19.0339 24.8829 19.0205 24.8535C19.0338 24.8829 19.0472 24.9121 19.0625 24.9404ZM6.53418 25.0381C6.52218 25.0196 6.51114 25.0005 6.5 24.9814C6.51114 25.0005 6.52218 25.0196 6.53418 25.0381ZM25.6182 24.9121C25.6103 24.9286 25.6022 24.9448 25.5938 24.9609C25.6022 24.9448 25.6103 24.9286 25.6182 24.9121ZM6.46875 24.9268C6.46063 24.9113 6.45287 24.8957 6.44531 24.8799C6.45287 24.8957 6.46063 24.9113 6.46875 24.9268ZM18.998 24.8037C18.9859 24.7739 18.975 24.7436 18.9648 24.7129C18.9749 24.7436 18.9859 24.7739 18.998 24.8037ZM25.7139 24.6416C25.7076 24.6676 25.7011 24.6933 25.6934 24.7188C25.7011 24.6933 25.7076 24.6676 25.7139 24.6416ZM18.9219 24.5557C18.9308 24.5997 18.9421 24.6431 18.9551 24.6855C18.9421 24.6431 18.9308 24.5998 18.9219 24.5557ZM6.36914 24.6846C6.36122 24.6586 6.35507 24.6321 6.34863 24.6055C6.35507 24.6321 6.36121 24.6586 6.36914 24.6846ZM13.1299 19.9795C13.1421 20.0319 13.153 20.0852 13.1592 20.1396C13.153 20.0851 13.1421 20.0319 13.1299 19.9795ZM27.4834 19.4912C27.4967 19.5429 27.5097 19.5948 27.5205 19.6475L27.5488 19.8066C27.5406 19.7531 27.5303 19.7001 27.5195 19.6475L27.4834 19.4912ZM27.3008 18.9756C27.3321 19.0452 27.3622 19.1154 27.3887 19.1875C27.3622 19.1154 27.3321 19.0451 27.3008 18.9756ZM4.67285 19.1504H4.67383H4.67285ZM11.9062 18.9014V18.9004V18.9014ZM24.3486 18.8936C24.4456 18.8936 24.5403 18.9031 24.6318 18.9219C24.5861 18.9125 24.5394 18.9062 24.4922 18.9014L24.3486 18.8936ZM26.0254 17.5312C26.1591 17.6125 26.2861 17.7036 26.4062 17.8027C26.2861 17.7036 26.1591 17.6125 26.0254 17.5312ZM5.65527 17.7656H5.65625H5.65527ZM25.1562 17.165C25.2598 17.1917 25.3617 17.2224 25.4609 17.2588C25.3617 17.2224 25.2598 17.1917 25.1562 17.165ZM19.3301 5.49219C20.5335 4.28874 22.4928 4.28873 23.6963 5.49219L26.5332 8.3291C27.7364 9.53232 27.7369 11.4908 26.5342 12.6943L23.6455 15.5312L23.6445 15.5322C22.4411 16.7357 20.4818 16.7357 19.2783 15.5322L16.4414 12.6953C15.2382 11.4921 15.2377 9.5336 16.4404 8.33008L19.3291 5.49316L19.3301 5.49219ZM22.9814 16.2061C22.8063 16.2991 22.6247 16.3749 22.4385 16.4336C22.6247 16.3749 22.8063 16.2991 22.9814 16.2061ZM19.293 15.7529C19.5252 15.9627 19.7816 16.1313 20.0518 16.2617C19.8293 16.1543 19.6158 16.0216 19.418 15.8604L19.293 15.7529ZM23.4561 15.8975C23.5161 15.8504 23.5755 15.8019 23.6328 15.75L23.6299 15.7529C23.5736 15.8038 23.515 15.8513 23.4561 15.8975ZM7.43164 14.9121C7.5247 14.9202 7.61875 14.9258 7.71387 14.9258C7.6189 14.9258 7.52456 14.9202 7.43164 14.9121ZM7.09961 14.8672C7.19488 14.8856 7.29164 14.8994 7.38965 14.9092C7.29163 14.8994 7.19488 14.8855 7.09961 14.8672ZM22.6133 6.5752C22.0069 5.96881 21.0208 5.96828 20.4141 6.57422L17.5254 9.41113L17.5244 9.41211C16.9178 10.0187 16.9178 11.0057 17.5244 11.6123L20.3613 14.4492C20.9677 15.0556 21.9538 15.0561 22.5605 14.4502L25.4492 11.6133L25.4502 11.6123C26.0568 11.0057 26.0568 10.0187 25.4502 9.41211L22.6133 6.5752ZM11.7617 4.62598H11.7627C13.4646 4.62598 14.8496 6.01095 14.8496 7.71289V11.7256C14.8496 13.4276 13.4647 14.8115 11.7627 14.8115L7.71484 14.7754H7.71387C6.01205 14.7754 4.62721 13.3912 4.62695 11.6895V7.67676C4.62696 5.97497 6.01117 4.59013 7.71289 4.58984L11.7617 4.62598ZM20.4678 14.3438C20.5215 14.3975 20.5799 14.4441 20.6396 14.4873C20.618 14.4717 20.5951 14.4575 20.5742 14.4404L20.4678 14.3438ZM22.4551 14.3438C22.4011 14.3977 22.3422 14.444 22.2822 14.4873C22.3043 14.4714 22.3274 14.4568 22.3486 14.4395L22.4551 14.3438ZM14.9033 12.5107C14.8296 12.8057 14.714 13.084 14.5654 13.3408C14.714 13.084 14.8296 12.8056 14.9033 12.5107ZM7.71387 6.12109C6.85596 6.12109 6.15821 6.81885 6.1582 7.67676V11.6885C6.1582 12.5459 6.8547 13.2423 7.71191 13.2432V13.2441L11.7617 13.2812H11.7627C12.6206 13.2812 13.3184 12.5835 13.3184 11.7256V7.71289C13.3183 6.85501 12.6206 6.15723 11.7627 6.15723H11.7637L7.71484 6.12109H7.71387ZM7.43066 13.0664C7.52201 13.0851 7.61707 13.0947 7.71387 13.0947L7.57031 13.0879L7.43066 13.0664ZM16.2236 12.6836L16.335 12.8008C16.2763 12.7421 16.2212 12.6811 16.168 12.6191C16.1864 12.6406 16.2045 12.6625 16.2236 12.6836ZM14.9375 12.3584C14.9329 12.3814 14.9269 12.404 14.9219 12.4268C14.9269 12.404 14.9329 12.3814 14.9375 12.3584ZM15.4678 11.2227C15.5302 11.502 15.6296 11.7744 15.7666 12.0322C15.6296 11.7744 15.5302 11.502 15.4678 11.2227ZM6.30762 11.6885C6.30762 11.7853 6.31722 11.8804 6.33594 11.9717C6.32653 11.9259 6.31927 11.8793 6.31445 11.832L6.30762 11.6885ZM17.5342 11.3994L17.6299 11.5059C17.5758 11.4518 17.5287 11.3931 17.4854 11.333C17.5014 11.3552 17.5167 11.378 17.5342 11.3994ZM25.5156 11.2969C25.4661 11.3704 25.4097 11.4408 25.3447 11.5059C25.4097 11.4409 25.4661 11.3704 25.5156 11.2969ZM25.5898 11.1738C25.5785 11.195 25.5662 11.2156 25.5537 11.2363C25.5662 11.2156 25.5785 11.195 25.5898 11.1738ZM25.6475 11.0488C25.6361 11.0764 25.6245 11.1039 25.6113 11.1309C25.6245 11.1039 25.6361 11.0764 25.6475 11.0488ZM25.6904 10.9316C25.6816 10.9599 25.6718 10.9878 25.6611 11.0156C25.6718 10.9878 25.6816 10.9599 25.6904 10.9316ZM25.7246 10.7969C25.7193 10.8227 25.7138 10.8485 25.707 10.874C25.7138 10.8485 25.7193 10.8227 25.7246 10.7969ZM25.7451 10.6738C25.742 10.701 25.7371 10.7279 25.7324 10.7549C25.7371 10.7279 25.742 10.701 25.7451 10.6738ZM25.7539 10.5498C25.7533 10.571 25.7515 10.5921 25.75 10.6133C25.7515 10.5921 25.7533 10.571 25.7539 10.5498ZM25.751 10.4229C25.752 10.4395 25.7534 10.456 25.7539 10.4727C25.7534 10.456 25.752 10.4395 25.751 10.4229ZM25.7354 10.2852C25.7389 10.3066 25.7426 10.328 25.7451 10.3496C25.7426 10.328 25.7388 10.3066 25.7354 10.2852ZM25.7129 10.1729C25.7165 10.1875 25.7205 10.2021 25.7236 10.2168C25.7205 10.202 25.7165 10.1875 25.7129 10.1729ZM25.6543 9.98926C25.6673 10.0218 25.679 10.0547 25.6895 10.0879C25.679 10.0547 25.6673 10.0218 25.6543 9.98926ZM25.5967 9.86328C25.6158 9.90004 25.6328 9.9376 25.6484 9.97559C25.6328 9.93759 25.6158 9.90005 25.5967 9.86328ZM17.6299 9.51855C17.5863 9.56212 17.5474 9.60869 17.5107 9.65625C17.5185 9.64612 17.5251 9.63496 17.5332 9.625L17.6299 9.51855ZM16.2207 8.34375C16.0108 8.57613 15.8414 8.83228 15.7109 9.10254C15.8414 8.83229 16.0108 8.57613 16.2207 8.34375ZM6.33594 7.39355C6.32656 7.4393 6.32023 7.48597 6.31543 7.5332L6.30762 7.67676C6.30762 7.62832 6.30964 7.5804 6.31445 7.5332L6.33594 7.39355ZM13.0645 7.18457C13.0675 7.19201 13.0703 7.19952 13.0732 7.20703C13.0703 7.19952 13.0675 7.19202 13.0645 7.18457ZM13.0059 7.06152C13.0139 7.07673 13.0219 7.0919 13.0293 7.10742C13.0218 7.0919 13.0139 7.07673 13.0059 7.06152ZM12.9365 6.94238C12.9503 6.96337 12.9629 6.98509 12.9756 7.00684C12.9629 6.9851 12.9503 6.96336 12.9365 6.94238ZM12.8574 6.83398C12.8761 6.85718 12.894 6.88091 12.9111 6.90527C12.894 6.88092 12.8761 6.85717 12.8574 6.83398ZM12.7725 6.7373C12.7907 6.75622 12.808 6.77599 12.8252 6.7959C12.808 6.77599 12.7907 6.75621 12.7725 6.7373ZM4.67285 6.56445H4.67383H4.67285ZM12.6758 6.64648C12.6982 6.66571 12.7201 6.68547 12.7412 6.70605C12.72 6.68548 12.6982 6.66571 12.6758 6.64648ZM20.7266 6.51074C20.6537 6.56003 20.584 6.61621 20.5195 6.68066C20.584 6.61621 20.6537 6.56003 20.7266 6.51074ZM22.2998 6.51074C22.3719 6.55953 22.441 6.61507 22.5049 6.67871C22.441 6.61506 22.3719 6.55953 22.2998 6.51074ZM12.5693 6.56445C12.5918 6.58031 12.6142 6.59616 12.6357 6.61328C12.6142 6.59617 12.5918 6.58031 12.5693 6.56445ZM12.4551 6.49121C12.4823 6.50672 12.5091 6.52281 12.5352 6.54004C12.5091 6.52281 12.4823 6.50671 12.4551 6.49121ZM12.3447 6.43457C12.3711 6.44665 12.3973 6.45901 12.4229 6.47266C12.3973 6.45902 12.3711 6.44665 12.3447 6.43457ZM12.2422 6.39258C12.2596 6.39891 12.2769 6.40512 12.2939 6.41211C12.2769 6.40512 12.2596 6.3989 12.2422 6.39258ZM12.0732 6.34277C12.1058 6.35016 12.1382 6.35758 12.1699 6.36719C12.1382 6.35758 12.1058 6.35015 12.0732 6.34277ZM11.9062 6.31445C11.9525 6.31916 11.9981 6.32586 12.043 6.33496C11.9981 6.32586 11.9525 6.31916 11.9062 6.31445ZM7.71387 6.27051C7.61707 6.27051 7.52201 6.28011 7.43066 6.29883C7.52215 6.28003 7.61692 6.27051 7.71387 6.27051ZM14.5303 6.03613C14.5642 6.09198 14.5963 6.14904 14.627 6.20703C14.5963 6.14904 14.5643 6.09198 14.5303 6.03613ZM5.90527 4.99316C5.56074 5.22613 5.26324 5.52363 5.03027 5.86816C5.26324 5.52357 5.56068 5.22613 5.90527 4.99316ZM13.4912 4.97754C13.6939 5.10605 13.8818 5.25587 14.0508 5.4248V5.42578C13.9774 5.35242 13.9004 5.2829 13.8203 5.2168C13.7158 5.13054 13.6061 5.05035 13.4912 4.97754ZM13.0215 4.73145C13.1184 4.77252 13.2128 4.81818 13.3047 4.86816C13.2128 4.81821 13.1184 4.77249 13.0215 4.73145ZM6.60156 4.63672C6.70095 4.60025 6.8026 4.5687 6.90625 4.54199C6.80261 4.56872 6.70094 4.60024 6.60156 4.63672ZM12.5703 4.5791V4.57812V4.5791ZM19.126 25.0459C19.1059 25.0154 19.087 24.9842 19.0693 24.9521C19.087 24.9842 19.1059 25.0154 19.126 25.0459ZM18.9209 24.5498L18.9014 24.4189C18.9061 24.4652 18.9128 24.5108 18.9219 24.5557C18.9215 24.5537 18.9213 24.5517 18.9209 24.5498ZM23.3838 15.9531C23.4082 15.9351 23.4321 15.9163 23.4561 15.8975C23.4321 15.9163 23.4082 15.9351 23.3838 15.9531ZM4.5293 12.2725C4.53305 12.293 4.5359 12.3136 4.54004 12.334C4.53591 12.3136 4.53304 12.293 4.5293 12.2725ZM25.5459 9.77539C25.5621 9.8016 25.5785 9.82749 25.5928 9.85449C25.5785 9.82748 25.5621 9.80161 25.5459 9.77539Z" fill="#016FFD"/>
</g>
<defs>
<clipPath id="clip0_2228_446">
<rect width="32" height="32" fill="white"/>
</clipPath>
</defs>
</svg>
