<svg width="32" height="32" viewBox="0 0 32 32" fill="none" xmlns="http://www.w3.org/2000/svg">
<g id="Frame" clip-path="url(#clip0_2228_467)">
<path id="Vector" d="M25.0938 23.0697C25.0938 22.6442 25.382 22.3005 25.7969 22.3005C26.2117 22.3005 26.5 22.6442 26.5 23.0697V24.8462C26.5 25.4832 26.043 26 25.4219 26H6.625C6.00391 26 5.5 25.4832 5.5 24.8462V7.15385C5.5 6.51683 6.00391 6 6.625 6H25.375C25.9961 6 26.5 6.51683 26.5 7.15385V11.1466H6.90625V24.5577H25.0938V23.0697ZM25.0938 9.70433V7.44231H6.90625V9.70433H25.0938Z" fill="#016FFD"/>
<path id="Vector_2" d="M18.7417 13.4559C18.8702 13.0961 19.2627 12.9115 19.6177 13.0417C19.9728 13.1719 20.155 13.5696 20.0266 13.9293L17.2933 21.5441C17.1649 21.9039 16.7724 22.0885 16.4173 21.9583C16.0622 21.8281 15.88 21.4304 16.0085 21.0707L18.7417 13.4559ZM21.6081 14.8477C21.3558 14.5637 21.3791 14.1258 21.6595 13.8702C21.9398 13.6145 22.372 13.6382 22.6243 13.9222L25.3248 16.9639C25.5584 17.2266 25.5584 17.6266 25.3248 17.8894L22.6243 20.9334C22.372 21.2174 21.9398 21.2411 21.6595 20.9854C21.3791 20.7298 21.3558 20.2919 21.6081 20.0079L23.8974 17.4278L21.6081 14.8477ZM14.3919 14.8477C14.6442 14.5637 14.6209 14.1258 14.3405 13.8702C14.0602 13.6145 13.628 13.6382 13.3757 13.9222L10.6752 16.9639C10.4416 17.2266 10.4416 17.6266 10.6752 17.8894L13.3757 20.931C13.6233 21.2198 14.0555 21.2506 14.3405 20.9996C14.6255 20.7487 14.6559 20.3108 14.4083 20.0221C14.4036 20.015 14.3966 20.0102 14.3919 20.0031L12.1026 17.4231L14.3919 14.8477Z" fill="#016FFD"/>
</g>
<defs>
<clipPath id="clip0_2228_467">
<rect width="32" height="32" fill="white"/>
</clipPath>
</defs>
</svg>
