<svg width="32" height="32" viewBox="0 0 32 32" fill="none" xmlns="http://www.w3.org/2000/svg">
<path d="M9.25643 26.0006C7.23243 26.0006 5.58594 24.354 5.58594 22.3301V12.0963C5.58594 10.0723 7.2325 8.42578 9.25643 8.42578C9.74128 8.42578 10.1358 8.82013 10.1358 9.30511C10.1358 9.79009 9.74141 10.1844 9.25643 10.1844C8.20219 10.1844 7.34466 11.0421 7.34466 12.0962V22.33C7.34466 23.3842 8.20226 24.2418 9.25643 24.2418H22.2814C23.3355 24.2418 24.1931 23.3842 24.1931 22.33V12.0962C24.1931 11.0421 23.3355 10.1844 22.2814 10.1844C21.7965 10.1844 21.402 9.79009 21.402 9.30511C21.402 8.82013 21.7964 8.42578 22.2814 8.42578C24.3054 8.42578 25.9519 10.0723 25.9519 12.0963V22.3301C25.9519 24.3541 24.3053 26.0006 22.2814 26.0006H9.25643Z" fill="#4E4E4E"/>
<path d="M15.7686 5.99902C16.3086 5.99911 16.7479 6.43842 16.748 6.97852V16.2422L19.9609 13.0312C20.1457 12.8467 20.3922 12.7452 20.6533 12.7451C20.9144 12.7452 21.161 12.8467 21.3457 13.0312C21.7277 13.4132 21.7277 14.0349 21.3457 14.417L16.9551 18.8066C16.6387 19.123 16.217 19.2978 15.7686 19.2979C15.3212 19.2978 14.8987 19.1232 14.582 18.8076L10.1914 14.417C10.0068 14.2322 9.90527 13.9849 9.90527 13.7236C9.90547 13.4626 10.0067 13.2159 10.1914 13.0312C10.3761 12.8466 10.6227 12.7453 10.8838 12.7451C11.145 12.7451 11.3923 12.8466 11.5771 13.0312L14.79 16.2441V6.97852C14.7902 6.43869 15.2286 5.99925 15.7686 5.99902Z" fill="#4E4E4E"/>
<circle cx="24" cy="7" r="4" fill="#FF0000"/>
</svg>
