<svg width="32" height="32" viewBox="0 0 32 32" fill="none" xmlns="http://www.w3.org/2000/svg">
<g id="Frame" clip-path="url(#clip0_2228_43)">
<path id="Vector" d="M19.9966 21.2058C18.9619 21.2058 18.9522 22.8227 19.9853 22.8227C21.0185 22.8227 21.0298 21.2058 19.9966 21.2058ZM19.9966 17.7588C18.9619 17.7588 18.9522 19.3756 19.9853 19.3756C21.0185 19.3756 21.0298 17.7588 19.9966 17.7588ZM22.8374 19.34C21.8042 19.34 21.7929 20.9569 22.8261 20.9569C23.8592 20.9569 23.8705 19.34 22.8374 19.34Z" fill="#4E4E4E"/>
<path id="Vector_2" d="M21.78 14.388H14.6999C14.7015 14.3676 14.7015 14.347 14.6999 14.3266V8.79709C14.6999 8.35542 14.8754 7.93184 15.1877 7.61953C15.5 7.30722 15.9236 7.13177 16.3652 7.13177C16.8069 7.13177 17.2305 7.30722 17.5428 7.61953C17.8551 7.93184 18.0306 8.35542 18.0306 8.79709V8.99111C18.0314 9.73268 18.3264 10.4436 18.8508 10.968C19.3751 11.4924 20.0861 11.7873 20.8276 11.7882H21.2157C21.9573 11.7873 22.6682 11.4924 23.1926 10.968C23.717 10.4436 24.0119 9.73268 24.0128 8.99111V6.56589C24.0127 6.41582 23.9531 6.27191 23.847 6.16581C23.7409 6.05971 23.597 6.00011 23.4469 6.00011C23.2968 6.00011 23.1529 6.05971 23.0468 6.16581C22.9407 6.27191 22.881 6.41582 22.881 6.56589V8.99111C22.8806 9.43265 22.705 9.85598 22.3928 10.1682C22.0806 10.4804 21.6572 10.656 21.2157 10.6564H20.8276C20.3861 10.656 19.9628 10.4804 19.6506 10.1682C19.3383 9.85598 19.1628 9.43265 19.1623 8.99111V8.79709C19.1623 8.05526 18.8676 7.3438 18.3431 6.81925C17.8185 6.29469 17.1071 6 16.3652 6C15.6234 6 14.912 6.29469 14.3874 6.81925C13.8628 7.3438 13.5681 8.05526 13.5681 8.79709V14.3266C13.5666 14.347 13.5666 14.3676 13.5681 14.388H10.2246C8.68473 14.388 7.20796 14.9997 6.11912 16.0886C5.03029 17.1774 4.41859 18.6542 4.41859 20.194C4.41859 21.7339 5.03029 23.2106 6.11912 24.2995C7.20796 25.3883 8.68473 26 10.2246 26H21.78C23.3198 26 24.7966 25.3883 25.8854 24.2995C26.9742 23.2106 27.5859 21.7339 27.5859 20.194C27.5859 18.6542 26.9742 17.1774 25.8854 16.0886C24.7966 14.9997 23.3198 14.388 21.78 14.388ZM21.78 24.8682H10.2246C8.9849 24.8682 7.79599 24.3758 6.91941 23.4992C6.04282 22.6226 5.55036 21.4337 5.55036 20.194C5.55036 18.9543 6.04282 17.7654 6.91941 16.8889C7.79599 16.0123 8.9849 15.5198 10.2246 15.5198H21.78C23.0196 15.5198 24.2085 16.0123 25.0851 16.8889C25.9617 17.7654 26.4542 18.9543 26.4542 20.194C26.4542 21.4337 25.9617 22.6226 25.0851 23.4992C24.2085 24.3758 23.0196 24.8682 21.78 24.8682Z" fill="#4E4E4E"/>
<path id="Vector_3" d="M11.9368 17.7217H10.9522V19.699H8.98451V20.6885H10.9522V22.6659H11.9368V20.6885H13.9045V19.699H11.9368V17.7217Z" fill="#4E4E4E"/>
</g>
<defs>
<clipPath id="clip0_2228_43">
<rect width="32" height="32" fill="white"/>
</clipPath>
</defs>
</svg>
