<svg width="46" height="46" viewBox="0 0 46 46" fill="none" xmlns="http://www.w3.org/2000/svg">
<g id="Frame 52">
<rect width="46" height="46" rx="23" fill="#7099C3"/>
<g id="Frame" clip-path="url(#clip0_2207_276)">
<path id="Vector" d="M19.9709 14.0408C20.3393 14.0408 20.6546 14.1683 20.9168 14.4234C21.1789 14.6784 21.31 14.9902 21.31 15.3586V20.6725C21.31 21.041 21.1789 21.3563 20.9168 21.6184C20.6546 21.8806 20.3393 22.0117 19.9709 22.0117H14.657C14.2885 22.0117 13.9768 21.8806 13.7217 21.6184C13.4666 21.3563 13.3391 21.041 13.3391 20.6725V15.3586C13.3391 14.9902 13.4666 14.6784 13.7217 14.4234C13.9768 14.1683 14.2885 14.0408 14.657 14.0408H19.9709ZM19.9709 24.6686C20.3393 24.6686 20.6546 24.7961 20.9168 25.0512C21.1789 25.3063 21.31 25.618 21.31 25.9865V31.3216C21.31 31.6901 21.1789 32.0018 20.9168 32.2569C20.6546 32.512 20.3393 32.6395 19.9709 32.6395H14.657C14.2885 32.6395 13.9768 32.512 13.7217 32.2569C13.4666 32.0018 13.3391 31.6901 13.3391 31.3216V25.9865C13.3391 25.618 13.4666 25.3063 13.7217 25.0512C13.9768 24.7961 14.2885 24.6686 14.657 24.6686H19.9709ZM30.62 24.6686C30.9884 24.6686 31.3002 24.7961 31.5552 25.0512C31.8103 25.3063 31.9378 25.618 31.9378 25.9865V31.3216C31.9378 31.6901 31.8103 32.0018 31.5552 32.2569C31.3002 32.512 30.9884 32.6395 30.62 32.6395H25.3061C24.9376 32.6395 24.6223 32.512 24.3602 32.2569C24.098 32.0018 23.9669 31.6901 23.9669 31.3216V25.9865C23.9669 25.618 24.098 25.3063 24.3602 25.0512C24.6223 24.7961 24.9376 24.6686 25.3061 24.6686H30.62ZM33.5745 16.3789C33.8579 16.6623 33.9996 16.9953 33.9996 17.3779C33.9996 17.7605 33.8579 18.0864 33.5745 18.3557L29.621 22.3092C29.3376 22.5926 29.0081 22.7343 28.6326 22.7343C28.2571 22.7343 27.9276 22.5926 27.6442 22.3092L23.6906 18.3557C23.4214 18.0864 23.2868 17.7605 23.2868 17.3779C23.2868 16.9953 23.4214 16.6623 23.6906 16.3789L27.6442 12.4253C27.9276 12.1561 28.2571 12.0215 28.6326 12.0215C29.0081 12.0215 29.3376 12.1561 29.621 12.4253L33.5745 16.3789Z" fill="white"/>
</g>
</g>
<defs>
<clipPath id="clip0_2207_276">
<rect width="22" height="22" fill="white" transform="translate(12 12)"/>
</clipPath>
</defs>
</svg>
