<svg width="32" height="32" viewBox="0 0 32 32" fill="none" xmlns="http://www.w3.org/2000/svg">
<g id="Frame" clip-path="url(#clip0_2228_450)">
<path id="Vector" d="M23.9395 10.707C24.6686 10.707 25.2627 11.3012 25.2627 12.0303V23.9395C25.2627 24.6686 24.6686 25.2627 23.9395 25.2627H8.06055C7.33144 25.2627 6.7373 24.6686 6.7373 23.9395V12.0303C6.7373 11.3012 7.33144 10.707 8.06055 10.707H23.9395ZM23.9395 9.38379H8.06055C7.35866 9.38379 6.68551 9.66261 6.1892 10.1589C5.69289 10.6552 5.41406 11.3284 5.41406 12.0303L5.41406 23.9395C5.41406 24.6413 5.69289 25.3145 6.1892 25.8108C6.68551 26.3071 7.35866 26.5859 8.06055 26.5859H23.9395C24.6413 26.5859 25.3145 26.3071 25.8108 25.8108C26.3071 25.3145 26.5859 24.6413 26.5859 23.9395V12.0303C26.5859 11.3284 26.3071 10.6552 25.8108 10.1589C25.3145 9.66261 24.6413 9.38379 23.9395 9.38379Z" fill="#016FFD"/>
<path id="Vector_2" d="M26.5859 16.6616C26.5859 16.8371 26.5162 17.0054 26.3922 17.1295C26.2681 17.2535 26.0998 17.3232 25.9243 17.3232H6.07568C5.90021 17.3232 5.73192 17.2535 5.60785 17.1295C5.48377 17.0054 5.41406 16.8371 5.41406 16.6616C5.41406 16.4861 5.48377 16.3179 5.60785 16.1938C5.73192 16.0697 5.90021 16 6.07568 16H25.9243C26.0998 16 26.2681 16.0697 26.3922 16.1938C26.5162 16.3179 26.5859 16.4861 26.5859 16.6616Z" fill="#016FFD"/>
<path id="Vector_3" d="M16 18.6465C15.8245 18.6465 15.6562 18.5768 15.5322 18.4527C15.4081 18.3286 15.3384 18.1603 15.3384 17.9849V15.3384C15.3384 15.1629 15.4081 14.9946 15.5322 14.8705C15.6562 14.7465 15.8245 14.6768 16 14.6768C16.1755 14.6768 16.3438 14.7465 16.4678 14.8705C16.5919 14.9946 16.6616 15.1629 16.6616 15.3384V17.9849C16.6616 18.1603 16.5919 18.3286 16.4678 18.4527C16.3438 18.5768 16.1755 18.6465 16 18.6465ZM22.6162 10.0454H21.293V8.72217C21.293 7.62785 20.4024 6.7373 19.3081 6.7373H12.6919C11.5976 6.7373 10.707 7.62785 10.707 8.72217V10.0454H9.38379V8.72217C9.38379 6.89874 10.8685 5.41406 12.6919 5.41406H19.3081C21.1315 5.41406 22.6162 6.89874 22.6162 8.72217V10.0454Z" fill="#016FFD"/>
</g>
<defs>
<clipPath id="clip0_2228_450">
<rect width="32" height="32" fill="white"/>
</clipPath>
</defs>
</svg>
