<svg width="33" height="32" viewBox="0 0 33 32" fill="none" xmlns="http://www.w3.org/2000/svg">
<g id="Frame" clip-path="url(#clip0_2172_242)">
<g id="Group 10">
<path id="Vector" d="M11.7285 5.39648C11.3659 5.39948 11.0191 5.54626 10.7637 5.80371C10.5084 6.06117 10.3653 6.40891 10.3652 6.77148V15.0781C10.3664 16.6832 11.0024 18.2228 12.1348 19.3604C13.2671 20.4979 14.8041 21.1409 16.4092 21.1494H16.418C18.0229 21.1408 19.5591 20.4978 20.6914 19.3604C21.8237 18.2228 22.4598 16.6832 22.4609 15.0781V6.77148C22.4609 6.40729 22.3169 6.05754 22.0596 5.7998C21.8023 5.54218 21.453 5.39714 21.0889 5.39648H11.7285ZM6.21973 10.2334C6.11132 10.2345 6.00719 10.2777 5.92969 10.3535C5.85226 10.4293 5.80724 10.5323 5.80371 10.6406L5.81738 11.0078C5.88319 11.8376 6.17485 12.4943 6.63379 13.0293C7.15779 13.6401 7.89877 14.0914 8.76562 14.4629L8.80078 14.4775V10.2334H6.21973ZM24.0176 14.4775L24.0518 14.4629C24.9186 14.0914 25.6596 13.64 26.1836 13.0303C26.7082 12.4199 27.0146 11.6514 27.0146 10.6494L27.0059 10.5684C26.9894 10.489 26.9495 10.4157 26.8916 10.3574C26.8337 10.2992 26.7608 10.2591 26.6816 10.2422L26.6006 10.2334H24.0176V14.4775ZM15.5801 22.665L15.5586 22.6631C13.8856 22.4689 12.3231 21.7265 11.1152 20.5527C9.90769 19.3791 9.12186 17.8393 8.87988 16.1729L8.87793 16.1572L8.8623 16.1523L8.37109 15.9932C7.24536 15.5936 6.27225 14.9967 5.55469 14.1963C4.7351 13.282 4.24805 12.1006 4.24805 10.6406C4.24816 10.1172 4.45564 9.61489 4.8252 9.24414C5.14856 8.91985 5.57277 8.71912 6.02441 8.67285L6.21973 8.66309H8.80078V6.77148C8.80085 5.99407 9.10928 5.24876 9.6582 4.69824C10.2072 4.14766 10.952 3.83722 11.7295 3.83496H21.0889C21.8663 3.83675 22.6112 4.14675 23.1602 4.69727C23.7092 5.24791 24.0181 5.99389 24.0176 6.77148V8.66309H26.5996L26.7949 8.67285C27.2469 8.71904 27.6716 8.91959 27.9951 9.24414C28.3647 9.61489 28.5722 10.1172 28.5723 10.6406C28.5723 12.1006 28.0839 13.282 27.2637 14.1963C26.4431 15.1109 25.2889 15.7599 23.9551 16.1523L23.9404 16.1572L23.9375 16.1729C23.6962 17.8396 22.9109 19.3799 21.7031 20.5537C20.4953 21.7275 18.9328 22.4696 17.2598 22.6631L17.2373 22.665V26.4961H21.2451C21.4665 26.4961 21.6794 26.5837 21.8359 26.7402C21.9925 26.8968 22.0801 27.1096 22.0801 27.3311C22.08 27.5523 21.9923 27.7644 21.8359 27.9209C21.6794 28.0775 21.4665 28.165 21.2451 28.165H11.5723C11.3509 28.165 11.138 28.0775 10.9814 27.9209C10.8251 27.7644 10.7374 27.5522 10.7373 27.3311C10.7373 27.1097 10.825 26.8968 10.9814 26.7402C11.138 26.5837 11.3509 26.4961 11.5723 26.4961H15.5801V22.665Z" fill="#016FFD" stroke="#F5F5F5" stroke-width="0.05"/>
<path id="Vector_2" d="M20.4983 14.9619C20.5748 14.9593 20.6512 14.9676 20.7249 14.9873L20.7981 15.0107C20.9906 15.0841 21.1466 15.2313 21.2317 15.4189C21.3165 15.6064 21.3238 15.8198 21.2522 16.0127C20.9853 16.7306 20.5627 17.3808 20.0149 17.916C19.4672 18.4511 18.8079 18.8583 18.0842 19.1084C18.0033 19.1364 17.9179 19.1508 17.8323 19.1504C17.6481 19.1495 17.4697 19.0832 17.3293 18.9639C17.1892 18.8446 17.0961 18.6796 17.0657 18.498C17.0353 18.3165 17.0697 18.1301 17.1633 17.9717C17.2571 17.8132 17.4045 17.6926 17.5784 17.6318C18.0831 17.4542 18.543 17.1685 18.926 16.7949C19.3091 16.4212 19.6061 15.968 19.7961 15.4678V15.4668C19.8318 15.3711 19.8867 15.2837 19.9563 15.209C20.0259 15.1342 20.1094 15.0736 20.2024 15.0312C20.2954 14.9889 20.3961 14.9654 20.4983 14.9619ZM17.6545 7.59473V14.8535H16.1741V9.51367L16.134 9.54199C15.7858 9.78441 15.4035 9.97285 15.0002 10.1025L14.8264 10.1553L14.6028 10.2178V8.72559L14.7366 8.69238V8.69141C15.0684 8.59876 15.3884 8.46795 15.6897 8.30078L15.6907 8.2998C15.9886 8.12036 16.2617 7.90262 16.5022 7.65137V7.65039L16.553 7.59473H17.6545Z" fill="#016FFD" stroke="#F5F5F5" stroke-width="0.05"/>
</g>
</g>
<defs>
<clipPath id="clip0_2172_242">
<rect width="32" height="32" fill="white" transform="translate(0.414062)"/>
</clipPath>
</defs>
</svg>
