<svg width="32" height="32" viewBox="0 0 32 32" fill="none" xmlns="http://www.w3.org/2000/svg">
<g id="Frame" clip-path="url(#clip0_2172_557)">
<g id="Group 10">
<path id="Vector" d="M11.3145 5.39648C10.9518 5.39948 10.605 5.54626 10.3496 5.80371C10.0943 6.06117 9.95123 6.40891 9.95117 6.77148V15.0781C9.95235 16.6832 10.5884 18.2228 11.7207 19.3604C12.8531 20.4979 14.3901 21.1409 15.9951 21.1494H16.0039C17.6088 21.1408 19.1451 20.4978 20.2773 19.3604C21.4097 18.2228 22.0457 16.6832 22.0469 15.0781V6.77148C22.0468 6.40729 21.9028 6.05754 21.6455 5.7998C21.3882 5.54218 21.0389 5.39714 20.6748 5.39648H11.3145ZM5.80566 10.2334C5.69726 10.2345 5.59313 10.2777 5.51562 10.3535C5.4382 10.4293 5.39318 10.5323 5.38965 10.6406L5.40332 11.0078C5.46913 11.8376 5.76078 12.4943 6.21973 13.0293C6.74373 13.6401 7.48471 14.0914 8.35156 14.4629L8.38672 14.4775V10.2334H5.80566ZM23.6035 14.4775L23.6377 14.4629C24.5045 14.0914 25.2455 13.64 25.7695 13.0303C26.2941 12.4199 26.6006 11.6514 26.6006 10.6494L26.5918 10.5684C26.5753 10.489 26.5355 10.4157 26.4775 10.3574C26.4196 10.2992 26.3467 10.2591 26.2676 10.2422L26.1865 10.2334H23.6035V14.4775ZM15.166 22.665L15.1445 22.6631C13.4716 22.4689 11.909 21.7265 10.7012 20.5527C9.49363 19.3791 8.7078 17.8393 8.46582 16.1729L8.46387 16.1572L8.44824 16.1523L7.95703 15.9932C6.8313 15.5936 5.85819 14.9967 5.14062 14.1963C4.32103 13.282 3.83398 12.1006 3.83398 10.6406C3.83409 10.1172 4.04158 9.61489 4.41113 9.24414C4.7345 8.91985 5.15871 8.71912 5.61035 8.67285L5.80566 8.66309H8.38672V6.77148C8.38678 5.99407 8.69522 5.24876 9.24414 4.69824C9.79312 4.14766 10.5379 3.83722 11.3154 3.83496H20.6748C21.4523 3.83675 22.1971 4.14675 22.7461 4.69727C23.2951 5.24791 23.604 5.99389 23.6035 6.77148V8.66309H26.1855L26.3809 8.67285C26.8328 8.71904 27.2575 8.91959 27.5811 9.24414C27.9506 9.61489 28.1581 10.1172 28.1582 10.6406C28.1582 12.1006 27.6698 13.282 26.8496 14.1963C26.0291 15.1109 24.8748 15.7599 23.541 16.1523L23.5264 16.1572L23.5234 16.1729C23.2821 17.8396 22.4968 19.3799 21.2891 20.5537C20.0812 21.7275 18.5188 22.4696 16.8457 22.6631L16.8232 22.665V26.4961H20.8311C21.0525 26.4961 21.2653 26.5837 21.4219 26.7402C21.5784 26.8968 21.666 27.1096 21.666 27.3311C21.6659 27.5523 21.5783 27.7644 21.4219 27.9209C21.2653 28.0775 21.0525 28.165 20.8311 28.165H11.1582C10.9368 28.165 10.7239 28.0775 10.5674 27.9209C10.4111 27.7644 10.3233 27.5522 10.3232 27.3311C10.3232 27.1097 10.4109 26.8968 10.5674 26.7402C10.7239 26.5837 10.9368 26.4961 11.1582 26.4961H15.166V22.665Z" fill="#4E4E4E" stroke="#F5F5F5" stroke-width="0.05"/>
<path id="Vector_2" d="M20.0842 14.9619C20.1607 14.9593 20.2371 14.9676 20.3108 14.9873L20.384 15.0107C20.5766 15.0841 20.7326 15.2313 20.8176 15.4189C20.9024 15.6064 20.9097 15.8198 20.8381 16.0127C20.5713 16.7306 20.1486 17.3808 19.6008 17.916C19.0532 18.4511 18.3938 18.8583 17.6702 19.1084C17.5893 19.1364 17.5038 19.1508 17.4182 19.1504C17.234 19.1495 17.0556 19.0832 16.9153 18.9639C16.7751 18.8446 16.682 18.6796 16.6516 18.498C16.6212 18.3165 16.6556 18.1301 16.7493 17.9717C16.8431 17.8132 16.9904 17.6926 17.1643 17.6318C17.669 17.4542 18.1289 17.1685 18.512 16.7949C18.895 16.4212 19.192 15.968 19.3821 15.4678V15.4668C19.4177 15.3711 19.4726 15.2837 19.5422 15.209C19.6119 15.1342 19.6954 15.0736 19.7883 15.0312C19.8814 14.9889 19.9821 14.9654 20.0842 14.9619ZM17.2405 7.59473V14.8535H15.76V9.51367L15.72 9.54199C15.3718 9.78441 14.9895 9.97285 14.5862 10.1025L14.4124 10.1553L14.1887 10.2178V8.72559L14.3225 8.69238V8.69141C14.6544 8.59876 14.9744 8.46795 15.2756 8.30078L15.2766 8.2998C15.5745 8.12036 15.8477 7.90262 16.0881 7.65137V7.65039L16.1389 7.59473H17.2405Z" fill="#4E4E4E" stroke="#F5F5F5" stroke-width="0.05"/>
</g>
</g>
<defs>
<clipPath id="clip0_2172_557">
<rect width="32" height="32" fill="white"/>
</clipPath>
</defs>
</svg>
