<svg width="32" height="32" viewBox="0 0 32 32" fill="none" xmlns="http://www.w3.org/2000/svg">
<g id="Frame" clip-path="url(#clip0_2228_442)">
<path id="Subtract" d="M23.2011 26.0947C23.3919 26.0947 23.5773 26.1722 23.7148 26.3125C23.8523 26.453 23.9306 26.6456 23.9306 26.8477C23.9305 27.0497 23.8524 27.2423 23.7148 27.3828C23.5773 27.5231 23.3919 27.5996 23.2011 27.5996H9.07808C8.88729 27.5996 8.70186 27.5231 8.56441 27.3828C8.42678 27.2424 8.3487 27.0497 8.34859 26.8477C8.34859 26.6456 8.42695 26.453 8.56441 26.3125C8.70186 26.1722 8.88728 26.0947 9.07808 26.0947H23.2011ZM8.51851 27.8467C8.6039 27.8964 8.6949 27.9344 8.78999 27.96C8.69493 27.9343 8.60387 27.8964 8.51851 27.8467ZM24.3095 27.0732C24.3064 27.0891 24.3015 27.1045 24.2978 27.1201C24.3027 27.0997 24.3077 27.0793 24.3115 27.0586L24.3095 27.0732ZM24.2822 26.5117C24.2929 26.5477 24.3023 26.5841 24.3095 26.6211L24.3251 26.7334C24.3178 26.6582 24.3035 26.5843 24.2822 26.5127V26.5117ZM24 26.0322C24.0793 26.1132 24.1463 26.2045 24.1982 26.3037V26.3047C24.1809 26.2716 24.162 26.2393 24.1416 26.208C24.1005 26.1452 24.053 26.0864 24 26.0322ZM8.35249 25.9629C8.32707 25.9846 8.30288 26.0081 8.27925 26.0322L8.20406 26.1172C8.16282 26.1686 8.12546 26.2229 8.0937 26.2803C8.14358 26.19 8.20622 26.1068 8.27925 26.0322C8.30286 26.0081 8.3271 25.9846 8.35249 25.9629ZM23.3125 25.7002C23.4235 25.7114 23.5317 25.7391 23.6337 25.7822C23.5317 25.739 23.4235 25.7114 23.3125 25.7002ZM15.7558 3.43164C15.9813 3.38753 16.2135 3.3892 16.4384 3.43652C16.6633 3.48386 16.8775 3.57593 17.0683 3.70801C17.2592 3.84016 17.4233 4.01032 17.5507 4.20801L21.7148 10.6621L24.5957 9.06934C24.907 8.89716 25.2614 8.8256 25.6123 8.86328L25.7832 8.88965C26.0047 8.93633 26.2155 9.02715 26.4043 9.15625C26.5957 9.28725 26.7611 9.45551 26.8896 9.65234C27.018 9.84922 27.1073 10.0708 27.1523 10.3037C27.1973 10.5367 27.1971 10.777 27.1513 11.0098L25.2177 20.8564C25.0906 21.5039 24.7479 22.0856 24.25 22.502C23.7523 22.918 23.13 23.1445 22.4892 23.1445H9.68257C9.04174 23.1446 8.41953 22.9179 7.92183 22.502C7.42392 22.0857 7.08135 21.5047 6.95406 20.8574L5.02046 11.0088C4.95455 10.6719 4.98421 10.3229 5.10542 10.0029C5.22658 9.68313 5.43382 9.40632 5.7021 9.2041C5.97047 9.00193 6.28905 8.88206 6.62007 8.8584C6.95107 8.83476 7.28237 8.90763 7.57515 9.06934L10.455 10.6621L10.6572 10.3477L14.6201 4.20703L14.7031 4.08789C14.7911 3.97301 14.8924 3.86909 15.0048 3.7793L15.1259 3.69238C15.3176 3.56422 15.5316 3.47554 15.7558 3.43164ZM11.3037 12.0664C11.2021 12.2242 11.0473 12.3358 10.872 12.3809C10.6967 12.4258 10.5104 12.402 10.3505 12.3135L6.3271 10.084L8.38374 20.5586L8.40718 20.6602C8.47226 20.8939 8.59974 21.1064 8.77632 21.2744C8.97814 21.4664 9.23465 21.5904 9.5107 21.627L9.52534 21.6289L9.53902 21.6299L9.65816 21.6367L9.66988 21.6377H22.4892C22.7973 21.6377 23.0945 21.5286 23.331 21.3311C23.5674 21.1335 23.7285 20.8601 23.788 20.5576L25.8427 10.084L21.8203 12.3125C21.6725 12.3943 21.5027 12.421 21.3388 12.3887C21.1767 12.3567 21.0283 12.2691 20.9199 12.1377L20.8652 12.0615L16.0859 4.65332L11.3037 12.0664ZM22.6376 21.2236C22.5887 21.2318 22.5393 21.2383 22.4892 21.2383H9.68257V21.2373H22.4892C22.5393 21.2373 22.5887 21.2318 22.6376 21.2236ZM22.7841 21.1865C22.7442 21.2003 22.7035 21.2106 22.6621 21.2188C22.7035 21.2107 22.7442 21.2002 22.7841 21.1865ZM23.1787 20.9199C23.1466 20.9569 23.113 20.9928 23.0751 21.0244L22.9433 21.1162C22.9 21.1411 22.8541 21.1602 22.8076 21.1777C22.9036 21.1417 22.9948 21.0915 23.0751 21.0244C23.113 20.9928 23.1465 20.9568 23.1787 20.9199ZM8.77632 20.4805C8.81441 20.6736 8.91054 20.85 9.05171 20.9844C9.08696 21.0179 9.12447 21.0489 9.16402 21.0762L9.28902 21.1484C9.20265 21.1071 9.12234 21.0525 9.05171 20.9854C8.91054 20.851 8.81448 20.6745 8.77632 20.4814V20.4805ZM23.2675 20.7988C23.2471 20.8319 23.2246 20.8633 23.2001 20.8936C23.2246 20.8633 23.247 20.8318 23.2675 20.7988ZM23.288 20.7656C23.3117 20.7238 23.3334 20.6809 23.3505 20.6357C23.3334 20.6809 23.3116 20.7238 23.288 20.7656ZM21.3584 12.7959C21.4013 12.8005 21.4443 12.8012 21.4873 12.8008C21.4765 12.8009 21.4658 12.802 21.455 12.8018L21.3584 12.7959ZM21.166 12.7578H21.1669H21.166ZM21.8359 12.7422C21.8254 12.7458 21.8143 12.7477 21.8037 12.751C21.8453 12.7381 21.8866 12.7239 21.9267 12.7061L21.8359 12.7422ZM11.3496 12.5898C11.3063 12.6212 11.2601 12.648 11.2128 12.6729C11.2291 12.6643 11.2459 12.6568 11.2617 12.6475L11.3496 12.5898ZM7.76851 8.71973V8.71875V8.71973ZM24.7011 8.58203V8.58301C24.5986 8.62056 24.4979 8.66629 24.4013 8.71973L21.8486 10.1309L24.4023 8.71875C24.4988 8.66538 24.5987 8.61954 24.7011 8.58203ZM4.8398 9.62012C4.79918 9.69799 4.76278 9.77849 4.7314 9.86133L4.69527 9.96484C4.70654 9.92998 4.71839 9.89471 4.7314 9.86035C4.76271 9.77776 4.79928 9.69775 4.8398 9.62012ZM26.8007 8.95508C26.9639 9.09228 27.1069 9.25335 27.2246 9.43359C27.2639 9.49387 27.2998 9.55641 27.333 9.62012C27.2999 9.55662 27.2638 9.49467 27.2246 9.43457C27.1461 9.31436 27.0564 9.20251 26.957 9.10059L26.8007 8.95508ZM5.24312 9.07324C5.22394 9.09219 5.2059 9.1122 5.18745 9.13184C5.20166 9.11673 5.21482 9.10064 5.22945 9.08594L5.24312 9.07324ZM25.8535 8.49609C26.0617 8.53872 26.2627 8.61178 26.4492 8.71387L26.6308 8.82617C26.3956 8.66523 26.1311 8.55293 25.8535 8.49609ZM25.6669 8.4668C25.6123 8.46062 25.5576 8.45697 25.5029 8.45508H25.3388C25.3934 8.45274 25.4481 8.45219 25.5029 8.4541L25.6669 8.4668ZM14.499 3.70898C14.4202 3.79652 14.3484 3.89069 14.2841 3.99023C14.3484 3.89065 14.4201 3.79638 14.499 3.70898ZM17.2959 3.37988V3.37891C17.413 3.46006 17.5221 3.55284 17.621 3.65527C17.5221 3.55297 17.413 3.46098 17.2959 3.37988ZM15.6796 3.03906L15.4736 3.09082C15.4492 3.09817 15.4254 3.10703 15.4013 3.11523C15.4255 3.10698 15.4491 3.09722 15.4736 3.08984L15.6796 3.03906ZM8.05952 26.3486C8.07036 26.3256 8.08138 26.3026 8.0937 26.2803C8.08137 26.3026 8.07037 26.3256 8.05952 26.3486Z" fill="#016FFD"/>
</g>
<defs>
<clipPath id="clip0_2228_442">
<rect width="32" height="32" fill="white"/>
</clipPath>
</defs>
</svg>
