<svg width="32" height="32" viewBox="0 0 32 32" fill="none" xmlns="http://www.w3.org/2000/svg">
<g id="Frame" clip-path="url(#clip0_2228_454)">
<path id="Subtract" d="M21.208 15.6699C19.748 16.5401 18.0775 17.0332 16.3066 17.0332C16.2684 17.0332 16.2309 17.0325 16.1943 17.0293L16.1934 17.0283C16.2303 17.0315 16.2681 17.0332 16.3066 17.0332C17.3689 17.0332 18.395 16.8554 19.3613 16.5254C19.5225 16.4703 19.6821 16.4111 19.8398 16.3477C20.1552 16.2209 20.4634 16.0777 20.7637 15.9189L21.208 15.6699ZM15.7969 16.9189V16.918V16.9189ZM25.5801 4.89551C25.8341 4.89558 26.0326 4.98046 26.166 5.11328C26.2991 5.24597 26.3847 5.44349 26.3848 5.7002C26.3848 11.8741 21.8276 16.8045 16.3066 16.8047C16.0528 16.8046 15.8572 16.72 15.7256 16.5879C15.594 16.4556 15.5088 16.258 15.5088 16C15.5089 15.7422 15.5936 15.5464 15.7246 15.416C15.8558 15.2856 16.0518 15.2022 16.3066 15.2021C20.9897 15.202 24.7822 10.9546 24.7822 5.7002C24.7823 5.44217 24.8673 5.2446 24.999 5.1123C25.1306 4.98024 25.3263 4.89555 25.5801 4.89551ZM17.1328 14.9268C17.0813 14.9325 17.0293 14.9348 16.9775 14.9395C17.0293 14.9348 17.0813 14.9325 17.1328 14.9268ZM17.543 14.8691C17.455 14.884 17.3662 14.8945 17.2773 14.9062C17.3662 14.8945 17.455 14.884 17.543 14.8691ZM17.9434 14.79C17.8528 14.8105 17.7615 14.8276 17.6699 14.8447C17.7615 14.8276 17.8528 14.8105 17.9434 14.79ZM18.332 14.6904C18.2503 14.7136 18.1676 14.7335 18.085 14.7539C18.1676 14.7335 18.2503 14.7136 18.332 14.6904ZM18.7021 14.5742C18.649 14.5923 18.5955 14.6091 18.542 14.626C18.5955 14.6091 18.649 14.5923 18.7021 14.5742ZM19.1074 14.4238C19.0352 14.4532 18.9619 14.4797 18.8887 14.5068C18.9619 14.4797 19.0352 14.4532 19.1074 14.4238ZM19.4746 14.2637C19.3886 14.3039 19.3013 14.3409 19.2139 14.3779C19.3013 14.3409 19.3886 14.3039 19.4746 14.2637ZM19.8115 14.0947C19.7518 14.1263 19.6914 14.1565 19.6309 14.1865C19.6914 14.1565 19.7518 14.1263 19.8115 14.0947ZM20.1826 13.8857C20.1185 13.9242 20.0534 13.9605 19.9883 13.9971C20.0534 13.9605 20.1185 13.9242 20.1826 13.8857ZM20.5117 13.6777C20.4511 13.7182 20.3897 13.7572 20.3281 13.7959C20.3897 13.7572 20.4511 13.7182 20.5117 13.6777ZM25.1152 11.5859C24.6835 12.3648 24.1688 13.0815 23.585 13.7217C24.1688 13.0816 24.6835 12.3648 25.1152 11.5859ZM20.8291 13.4541C20.7849 13.4867 20.7401 13.5181 20.6953 13.5498C20.7401 13.5181 20.7849 13.4867 20.8291 13.4541ZM21.1631 13.1943C21.1147 13.234 21.0658 13.273 21.0166 13.3115C21.0658 13.273 21.1147 13.234 21.1631 13.1943ZM21.4658 12.9336C21.4188 12.976 21.3711 13.0173 21.3232 13.0586C21.3711 13.0173 21.4188 12.976 21.4658 12.9336ZM21.7705 12.6455C21.7247 12.691 21.6785 12.7359 21.6318 12.7803C21.6785 12.7359 21.7247 12.691 21.7705 12.6455ZM22.0674 12.335C22.015 12.3924 21.9619 12.449 21.9082 12.5049C21.9619 12.449 22.015 12.3924 22.0674 12.335ZM22.335 12.0273C22.2857 12.0866 22.2361 12.1453 22.1855 12.2031C22.2361 12.1453 22.2857 12.0866 22.335 12.0273ZM22.5859 11.7109C22.5451 11.7648 22.5039 11.8183 22.4619 11.8711C22.5038 11.8183 22.5451 11.7648 22.5859 11.7109ZM22.8271 11.3789C22.7906 11.4319 22.7533 11.4841 22.7158 11.5361C22.7533 11.4841 22.7906 11.4319 22.8271 11.3789ZM23.0586 11.0254C23.0253 11.0787 22.9923 11.1321 22.958 11.1846C22.9923 11.1321 23.0253 11.0787 23.0586 11.0254ZM26.4932 7.43066C26.3884 8.1829 26.2166 8.91028 25.9844 9.60547C26.2166 8.9103 26.3884 8.18288 26.4932 7.43066ZM23.2734 10.665C23.2433 10.7185 23.2127 10.7715 23.1816 10.8242C23.2127 10.7715 23.2433 10.7185 23.2734 10.665ZM23.4756 10.2861C23.4476 10.3414 23.4196 10.3966 23.3906 10.4512C23.4196 10.3966 23.4476 10.3414 23.4756 10.2861ZM23.6699 9.87891C23.6408 9.94362 23.6124 10.0084 23.582 10.0723C23.6124 10.0084 23.6408 9.94362 23.6699 9.87891ZM23.8477 9.45605C23.8178 9.53195 23.7885 9.60783 23.7568 9.68262C23.7885 9.60783 23.8178 9.53195 23.8477 9.45605ZM24.0098 9.01758C23.9791 9.10771 23.9481 9.19741 23.915 9.28613C23.9481 9.19741 23.9791 9.10771 24.0098 9.01758ZM24.124 8.65625C24.1043 8.72252 24.0855 8.78891 24.0645 8.85449C24.0855 8.78891 24.1043 8.72252 24.124 8.65625ZM24.2793 8.07715C24.2513 8.19662 24.2215 8.31513 24.1895 8.43262C24.2215 8.31513 24.2513 8.19662 24.2793 8.07715ZM24.3564 7.71387C24.3374 7.81073 24.3185 7.90726 24.2969 8.00293C24.3185 7.90726 24.3374 7.81073 24.3564 7.71387ZM24.4531 7.14844C24.4338 7.28757 24.4115 7.42556 24.3867 7.5625C24.4115 7.42556 24.4338 7.28757 24.4531 7.14844ZM24.4893 6.84277C24.4797 6.93036 24.4707 7.0177 24.459 7.10449C24.4707 7.0177 24.4797 6.93036 24.4893 6.84277ZM26.4473 5.10059H26.4482H26.4473ZM26.1758 4.83008H26.1768H26.1758Z" fill="#016FFD"/>
<path id="Subtract_2" d="M16.3066 15.2021C16.5608 15.2021 16.759 15.2866 16.8926 15.4189C17.0259 15.5511 17.1113 15.7471 17.1113 16C17.1113 16.2542 17.0264 16.4524 16.8936 16.5859C16.7608 16.7191 16.5635 16.8047 16.3066 16.8047C11.6233 16.8047 7.83806 21.0525 7.83789 26.3066C7.83789 26.5607 7.75334 26.757 7.62109 26.8887C7.48878 27.0202 7.29113 27.1055 7.0332 27.1055C6.77526 27.1054 6.5776 27.0203 6.44531 26.8887C6.31306 26.757 6.22852 26.5607 6.22852 26.3066C6.22869 20.1262 10.7856 15.2022 16.3066 15.2021ZM8.02441 26.6299C8.00597 26.6961 7.98086 26.7581 7.95117 26.8164C7.98098 26.7578 8.00594 26.6954 8.02441 26.6289V26.6299ZM17.333 21.0156C17.5872 21.0156 17.7855 21.1005 17.9189 21.2334C18.0521 21.3661 18.1377 21.5634 18.1377 21.8203C18.1377 22.078 18.0532 22.273 17.9219 22.4033C17.7901 22.5339 17.5921 22.6182 17.333 22.6182H15.2734C15.0194 22.6182 14.8232 22.5341 14.6914 22.4023C14.5596 22.2706 14.4756 22.0744 14.4756 21.8203C14.4756 21.5661 14.56 21.368 14.6924 21.2344C14.8245 21.101 15.0205 21.0156 15.2734 21.0156H17.333ZM14.6494 22.6631C14.6692 22.677 14.6899 22.6897 14.7109 22.7021C14.6899 22.6897 14.6692 22.677 14.6494 22.6631ZM18.251 22.333H18.252H18.251ZM18.3623 21.9336H18.3613H18.3623ZM14.2637 21.6113C14.2549 21.6638 14.2509 21.7183 14.249 21.7744C14.2509 21.7183 14.2549 21.6638 14.2637 21.6113ZM18.3066 21.4443C18.3241 21.4967 18.3389 21.5511 18.3486 21.6084C18.3389 21.5512 18.3241 21.4967 18.3066 21.4443ZM14.627 20.9893C14.6479 20.9734 14.669 20.9575 14.6914 20.9434C14.669 20.9575 14.6479 20.9734 14.627 20.9893ZM8.05469 19.5146L8.05566 19.5137L8.05469 19.5146ZM13.8633 17.4473V17.4482V17.4473ZM15.8838 17.0449V17.0459V17.0449ZM17.2656 16.4209C17.2536 16.4521 17.2404 16.4825 17.2256 16.5117L17.1768 16.5967C17.2119 16.5421 17.2414 16.4828 17.2656 16.4199V16.4209ZM19.1729 9.38184C19.4271 9.38184 19.6252 9.46725 19.7588 9.59961C19.8922 9.73177 19.9785 9.92763 19.9785 10.1807C19.9784 10.4346 19.8935 10.6322 19.7607 10.7656C19.628 10.899 19.4299 10.9854 19.1729 10.9854H13.4336C13.1795 10.9854 12.9832 10.9008 12.8516 10.7686C12.7199 10.6363 12.6348 10.4385 12.6348 10.1807C12.6348 9.92271 12.7205 9.72714 12.8516 9.59668C12.9828 9.46609 13.1785 9.38184 13.4336 9.38184H19.1729ZM19.1729 9.15332C19.2153 9.15332 19.2573 9.15529 19.2979 9.15918C19.2572 9.15525 19.2155 9.15332 19.1729 9.15332ZM6.91992 6.72266V6.72168V6.72266ZM25.5869 4.89551C25.8449 4.89556 26.0425 4.98064 26.1748 5.1123C26.3069 5.24389 26.3915 5.4395 26.3916 5.69336C26.3916 5.94757 26.3067 6.14581 26.1738 6.2793C26.0412 6.41251 25.8437 6.49799 25.5869 6.49805H7.0332C6.77521 6.49802 6.57749 6.41343 6.44531 6.28125C6.31324 6.14905 6.22852 5.95128 6.22852 5.69336C6.22858 5.43558 6.3138 5.24065 6.44531 5.11035C6.57709 4.97982 6.77418 4.89554 7.0332 4.89551H25.5869ZM6.51855 6.6123V6.61133V6.6123ZM26.2646 6.50488C26.2514 6.51561 26.2365 6.52416 26.2227 6.53418C26.2397 6.52187 26.2573 6.51046 26.2734 6.49707L26.2646 6.50488ZM6.01855 26.5273L6.0166 26.5137C6.02059 26.5376 6.02588 26.5609 6.03125 26.584C6.02691 26.5653 6.02199 26.5466 6.01855 26.5273ZM6.03125 26.584C6.03368 26.5944 6.03538 26.605 6.03809 26.6152C6.03538 26.605 6.03368 26.5944 6.03125 26.584ZM14.6006 22.6279L14.5918 22.6201C14.6102 22.6354 14.6297 22.6493 14.6494 22.6631C14.633 22.6515 14.6162 22.6405 14.6006 22.6279ZM14.5664 21.0391C14.5858 21.0216 14.6061 21.0051 14.627 20.9893C14.6061 21.0051 14.5858 21.0216 14.5664 21.0391ZM25.9443 6.67285C25.9257 6.67871 25.907 6.68455 25.8877 6.68945C25.9069 6.68456 25.9257 6.6787 25.9443 6.67285ZM26.4297 6.32812C26.4177 6.3448 26.4056 6.3612 26.3926 6.37695C26.4056 6.3612 26.4177 6.34479 26.4297 6.32812ZM25.8027 4.68457C25.8311 4.68942 25.8586 4.69636 25.8857 4.70312C25.8586 4.69636 25.8311 4.68942 25.8027 4.68457Z" fill="#016FFD"/>
<path id="Subtract_3" d="M6.95996 27.3291L6.95898 27.3281L6.95996 27.3291ZM25.5801 25.502C25.8381 25.502 26.0357 25.5871 26.168 25.7188C26.3002 25.8503 26.3847 26.0459 26.3848 26.2998C26.3848 26.554 26.2999 26.7523 26.167 26.8857C26.0343 27.0189 25.8369 27.1045 25.5801 27.1045H7.07324C6.81526 27.1045 6.61753 27.0199 6.48535 26.8877C6.35328 26.7555 6.26855 26.5577 6.26855 26.2998C6.26862 26.042 6.35384 25.8471 6.48535 25.7168C6.61713 25.5863 6.81424 25.502 7.07324 25.502H25.5801ZM26.1328 27.1953C26.0879 27.2209 26.0404 27.243 25.9902 27.2617C26.0403 27.243 26.0879 27.2209 26.1328 27.1953ZM6.55859 27.2188V27.2178V27.2188ZM26.5947 26.5205C26.5922 26.5344 26.5879 26.5479 26.585 26.5615C26.5889 26.5435 26.5936 26.5254 26.5967 26.5068L26.5947 26.5205ZM25.8887 25.3115C25.9099 25.317 25.9307 25.3234 25.9512 25.3301C25.9307 25.3234 25.9099 25.317 25.8887 25.3115ZM25.959 27.2725C25.9372 27.2798 25.9152 27.2869 25.8926 27.293C25.9152 27.2869 25.9372 27.2798 25.959 27.2725ZM26.2871 27.084C26.2688 27.1002 26.2502 27.1161 26.2305 27.1309C26.2502 27.1161 26.2688 27.1002 26.2871 27.084ZM26.5439 26.7041C26.5349 26.7289 26.5245 26.7528 26.5137 26.7764C26.5245 26.7528 26.5349 26.7289 26.5439 26.7041ZM25.7949 25.291L25.8027 25.292C25.8321 25.2972 25.8606 25.3043 25.8887 25.3115C25.8582 25.3036 25.827 25.2965 25.7949 25.291Z" fill="#016FFD"/>
<path id="Subtract_4" d="M22.4482 18.5352C22.7415 18.2419 23.2056 18.2844 23.5703 18.6416C25.3315 20.6033 26.3354 23.2352 26.3867 26.0781H26.3848V26.3066C26.3848 26.5607 26.3002 26.757 26.168 26.8887C26.0357 27.0203 25.838 27.1055 25.5801 27.1055C25.3221 27.1055 25.1266 27.0197 24.9961 26.8887C24.8656 26.7574 24.7822 26.5616 24.7822 26.3066C24.7821 23.7816 23.9376 21.46 22.3584 19.6689L22.3486 19.6592L22.2969 19.6016C22.0584 19.3043 22.1155 18.8679 22.4482 18.5352ZM26.3291 27.0498V27.0508V27.0498ZM26.498 26.8164H26.499H26.498ZM24.5576 26.4199C24.5624 26.4757 24.5722 26.5293 24.584 26.5811C24.58 26.5633 24.5755 26.5456 24.5723 26.5273L24.5576 26.4199ZM22.1504 18.5322C22.1417 18.5442 22.1333 18.5562 22.125 18.5684C22.1321 18.5579 22.1391 18.5474 22.1465 18.5371L22.1504 18.5322ZM22.7207 18.1318V18.1328V18.1318ZM7.0332 4.89551C7.29113 4.89551 7.48684 4.98074 7.61719 5.1123C7.74756 5.24408 7.83103 5.44135 7.83105 5.7002C7.83105 8.22129 8.67385 10.6469 10.2598 12.3428L10.2646 12.3486C10.559 12.643 10.5157 13.1085 10.165 13.4658C9.87087 13.7597 9.40065 13.7151 9.05176 13.3691C7.24173 11.3546 6.22852 8.63199 6.22852 5.7002C6.22854 5.43835 6.31382 5.24124 6.44531 5.11035C6.57697 4.97935 6.77423 4.89554 7.0332 4.89551ZM10.6689 12.6211V12.6201V12.6211ZM8.07031 6.19141C8.07673 6.33553 8.08659 6.47909 8.09863 6.62207C8.08661 6.47909 8.07672 6.33552 8.07031 6.19141ZM8.01758 5.375C8.03581 5.44199 8.04844 5.51265 8.05469 5.58691C8.04845 5.51267 8.03579 5.44197 8.01758 5.375ZM22.1162 19.7422C22.1377 19.769 22.1612 19.795 22.1865 19.8203C22.1612 19.795 22.1377 19.769 22.1162 19.7422Z" fill="#016FFD"/>
</g>
<defs>
<clipPath id="clip0_2228_454">
<rect width="32" height="32" fill="white"/>
</clipPath>
</defs>
</svg>
