<svg width="32" height="32" viewBox="0 0 32 32" fill="none" xmlns="http://www.w3.org/2000/svg">
<g id="Frame" clip-path="url(#clip0_2228_474)">
<path id="Vector" d="M7.38667 16.928C7.38667 16.9227 7.38667 16.9173 7.384 16.9133C7.35053 16.6096 7.33362 16.3042 7.33333 15.9987C7.33616 13.7011 8.2502 11.4985 9.87494 9.874C11.4997 8.24951 13.7024 7.3358 16 7.33333C17.368 7.3345 18.7162 7.6605 19.9337 8.28451C21.1511 8.90853 22.203 9.81272 23.0027 10.9227H20.0747L19.9947 10.9187C19.8166 10.9187 19.6459 10.9894 19.52 11.1153C19.3941 11.2412 19.3233 11.412 19.3233 11.59C19.3233 11.768 19.3941 11.9388 19.52 12.0647C19.6459 12.1906 19.8166 12.2613 19.9947 12.2613C20.0213 12.2613 20.048 12.2587 20.0747 12.256H23.8053L23.808 12.2627C23.808 12.2627 25.2667 12.2587 25.2667 12.256H25.2693C24.8147 10.976 23.9347 9.94 23.9347 9.94C23.0056 8.71575 21.8059 7.72304 20.4294 7.03953C19.0529 6.35601 17.5369 6.00023 16 6C10.4867 6 6 10.4853 6 15.9987C6 16.296 6.016 16.592 6.044 16.88V16.928C6.05896 17.0955 6.13609 17.2514 6.26021 17.365C6.38433 17.4785 6.54645 17.5415 6.71467 17.5415C6.88288 17.5415 7.04501 17.4785 7.16913 17.365C7.29325 17.2514 7.37038 17.0955 7.38533 16.928H7.38667ZM25.9827 15.624H25.9693C25.9528 15.4548 25.8729 15.298 25.7456 15.1853C25.6184 15.0725 25.4531 15.0121 25.2831 15.0162C25.1131 15.0202 24.951 15.0884 24.8292 15.2071C24.7074 15.3258 24.6351 15.4862 24.6267 15.656C24.6267 15.728 24.6373 15.8 24.6613 15.8653C24.6653 15.9107 24.6667 15.9547 24.6667 16C24.6642 18.2973 23.7504 20.4998 22.1258 22.1241C20.5013 23.7484 18.2986 24.6619 16.0013 24.664C14.7185 24.6628 13.4521 24.3763 12.2937 23.8251C11.1353 23.2739 10.1141 22.472 9.304 21.4773H12.128C12.1547 21.484 12.1827 21.484 12.2093 21.484C12.236 21.484 12.264 21.484 12.2893 21.4787H12.32V21.472C12.4786 21.4483 12.6235 21.3685 12.7282 21.247C12.8329 21.1255 12.8905 20.9704 12.8905 20.81C12.8905 20.6496 12.8329 20.4945 12.7282 20.373C12.6235 20.2515 12.4786 20.1717 12.32 20.148V20.1453H12.2867C12.233 20.1396 12.179 20.1396 12.1253 20.1453H6.98267C6.98267 20.1453 7.16133 20.992 8.316 22.3653C10.1667 24.5653 12.9053 26 16 26C21.5147 26 26 21.5147 26 16C26 15.872 25.9867 15.7493 25.9827 15.624Z" fill="#016FFD"/>
</g>
<defs>
<clipPath id="clip0_2228_474">
<rect width="32" height="32" fill="white"/>
</clipPath>
</defs>
</svg>
